<svg width="11" height="17" viewBox="0 0 11 17" fill="none" xmlns="http://www.w3.org/2000/svg">
<rect x="8" y="16" width="1" height="1" fill="black"/>
<rect x="7" y="16" width="1" height="1" fill="black"/>
<rect x="6" y="15" width="1" height="1" fill="black"/>
<rect x="6" y="14" width="1" height="1" fill="black"/>
<path d="M5 13H6V14H5V13Z" fill="black"/>
<path d="M5 12H6V13H5V12Z" fill="black"/>
<path d="M4 11H5V12H4V11Z" fill="black"/>
<path d="M3 12H4V13H3V12Z" fill="black"/>
<path d="M2 13H3V14H2V13Z" fill="black"/>
<path d="M1 14H2V15H1V14Z" fill="black"/>
<path d="M0 14H1V15H0V14Z" fill="black"/>
<path d="M0 13H1V14H0V13Z" fill="black"/>
<path d="M0 12H1V13H0V12Z" fill="black"/>
<path d="M0 11H1V12H0V11Z" fill="black"/>
<path d="M0 10H1V11H0V10Z" fill="black"/>
<path d="M0 9H1V10H0V9Z" fill="black"/>
<path d="M0 8H1V9H0V8Z" fill="black"/>
<path d="M0 7H1V8H0V7Z" fill="black"/>
<path d="M0 6H1V7H0V6Z" fill="black"/>
<path d="M0 5H1V6H0V5Z" fill="black"/>
<path d="M0 4H1V5H0V4Z" fill="black"/>
<path d="M0 3H1V4H0V3Z" fill="black"/>
<path d="M0 2H1V3H0V2Z" fill="black"/>
<path d="M0 1H1V2H0V1Z" fill="black"/>
<path d="M0 0H1V1H0V0Z" fill="black"/>
<rect x="9" y="15" width="1" height="1" fill="black"/>
<rect x="9" y="14" width="1" height="1" fill="black"/>
<rect x="8" y="13" width="1" height="1" fill="black"/>
<rect x="8" y="12" width="1" height="1" fill="black"/>
<rect x="7" y="11" width="1" height="1" fill="black"/>
<rect x="7" y="10" width="1" height="1" fill="black"/>
<rect x="8" y="10" width="1" height="1" fill="black"/>
<rect x="9" y="10" width="1" height="1" fill="black"/>
<rect x="10" y="10" width="1" height="1" fill="black"/>
<rect x="10" y="9" width="1" height="1" fill="black"/>
<rect x="9" y="8" width="1" height="1" fill="black"/>
<rect x="8" y="7" width="1" height="1" fill="black"/>
<rect x="7" y="6" width="1" height="1" fill="black"/>
<rect x="6" y="5" width="1" height="1" fill="black"/>
<rect x="5" y="4" width="1" height="1" fill="black"/>
<rect x="4" y="3" width="1" height="1" fill="black"/>
<rect x="3" y="2" width="1" height="1" fill="black"/>
<rect x="2" y="1" width="1" height="1" fill="black"/>
<rect x="1" width="1" height="1" fill="black"/>
<rect x="7" y="15" width="1" height="1" fill="#F2B33D"/>
<rect x="7" y="14" width="1" height="1" fill="#F2B33D"/>
<rect x="6" y="13" width="1" height="1" fill="#F2B33D"/>
<rect x="6" y="12" width="1" height="1" fill="#F2B33D"/>
<rect x="6" y="11" width="1" height="1" fill="#F2B33D"/>
<rect x="5" y="11" width="1" height="1" fill="#F2B33D"/>
<rect x="5" y="10" width="1" height="1" fill="#F2B33D"/>
<rect x="4" y="10" width="1" height="1" fill="#F2B33D"/>
<rect x="5" y="9" width="1" height="1" fill="#F2B33D"/>
<rect x="7" y="8" width="1" height="1" fill="#F2B33D"/>
<rect x="7" y="7" width="1" height="1" fill="#F2B33D"/>
<rect x="6" y="6" width="1" height="1" fill="#F2B33D"/>
<rect x="4" y="6" width="1" height="1" fill="#F2B33D"/>
<rect x="4" y="8" width="1" height="1" fill="#F2B33D"/>
<rect x="4" y="7" width="1" height="1" fill="#F2B33D"/>
<rect x="5" y="6" width="1" height="1" fill="#F2B33D"/>
<rect x="6" y="7" width="1" height="1" fill="#F2B33D"/>
<rect x="2" y="9" width="1" height="1" fill="#F2B33D"/>
<rect x="3" y="8" width="1" height="1" fill="#F2B33D"/>
<rect x="5" y="7" width="1" height="1" fill="#F2B33D"/>
<rect x="5" y="8" width="1" height="1" fill="#F2B33D"/>
<rect x="6" y="8" width="1" height="1" fill="#F2B33D"/>
<rect x="8" y="8" width="1" height="1" fill="#F2B33D"/>
<rect x="9" y="9" width="1" height="1" fill="#F2B33D"/>
<rect x="8" y="9" width="1" height="1" fill="#F2B33D"/>
<rect x="7" y="9" width="1" height="1" fill="#F2B33D"/>
<rect x="6" y="9" width="1" height="1" fill="#F2B33D"/>
<rect x="4" y="9" width="1" height="1" fill="#F2B33D"/>
<rect x="3" y="9" width="1" height="1" fill="#F2B33D"/>
<rect x="1" y="9" width="1" height="1" fill="#F2B33D"/>
<rect x="1" y="10" width="1" height="1" fill="#F2B33D"/>
<rect x="1" y="11" width="1" height="1" fill="#F2B33D"/>
<rect x="1" y="12" width="1" height="1" fill="#F2B33D"/>
<rect x="1" y="13" width="1" height="1" fill="#F2B33D"/>
<rect x="2" y="12" width="1" height="1" fill="#F2B33D"/>
<rect x="3" y="11" width="1" height="1" fill="#F2B33D"/>
<rect x="3" y="10" width="1" height="1" fill="#F2B33D"/>
<rect x="2" y="10" width="1" height="1" fill="#F2B33D"/>
<rect x="2" y="11" width="1" height="1" fill="#F2B33D"/>
<rect x="2" y="8" width="1" height="1" fill="#F2B33D"/>
<rect x="2" y="7" width="1" height="1" fill="#F2B33D"/>
<rect x="2" y="6" width="1" height="1" fill="#F2B33D"/>
<rect x="2" y="5" width="1" height="1" fill="#F2B33D"/>
<rect x="2" y="4" width="1" height="1" fill="#F2B33D"/>
<rect x="2" y="3" width="1" height="1" fill="#F2B33D"/>
<rect x="2" y="2" width="1" height="1" fill="#F2B33D"/>
<rect x="1" y="1" width="1" height="1" fill="#F2B33D"/>
<rect x="1" y="2" width="1" height="1" fill="#F2B33D"/>
<rect x="1" y="3" width="1" height="1" fill="#F2B33D"/>
<rect x="1" y="4" width="1" height="1" fill="#F2B33D"/>
<rect x="1" y="5" width="1" height="1" fill="#F2B33D"/>
<rect x="1" y="6" width="1" height="1" fill="#F2B33D"/>
<rect x="1" y="7" width="1" height="1" fill="#F2B33D"/>
<rect x="1" y="8" width="1" height="1" fill="#F2B33D"/>
<rect x="3" y="7" width="1" height="1" fill="#F2B33D"/>
<rect x="3" y="6" width="1" height="1" fill="#F2B33D"/>
<rect x="3" y="5" width="1" height="1" fill="#F2B33D"/>
<rect x="3" y="4" width="1" height="1" fill="#F2B33D"/>
<rect x="3" y="3" width="1" height="1" fill="#F2B33D"/>
<rect x="4" y="4" width="1" height="1" fill="#F2B33D"/>
<rect x="5" y="5" width="1" height="1" fill="#F2B33D"/>
<rect x="4" y="5" width="1" height="1" fill="#F2B33D"/>
<rect x="6" y="10" width="1" height="1" fill="#F2B33D"/>
<rect x="7" y="13" width="1" height="1" fill="#F2B33D"/>
<rect x="7" y="12" width="1" height="1" fill="#F2B33D"/>
<rect x="8" y="15" width="1" height="1" fill="#F2B33D"/>
<rect x="8" y="14" width="1" height="1" fill="#F2B33D"/>
</svg>
